<?xml version="1.0" encoding="utf-8"?>
<!-- Generator: Adobe Illustrator 21.0.1, SVG Export Plug-In . SVG Version: 6.00 Build 0)  -->
<svg version="1.1" id="Слой_1" xmlns="http://www.w3.org/2000/svg" xmlns:xlink="http://www.w3.org/1999/xlink" x="0px" y="0px"
	 viewBox="0 0 40 40" style="enable-background:new 0 0 40 40;" xml:space="preserve">
<style type="text/css">
	.st0{fill:#FFFFFF;}
</style>
<path class="st0" d="M20.1,3c1.1,0.2,2,0.7,3,1.1c5.2,2.1,10.4,4.2,15.6,6.3c0.6,0.3,1.1,0.7,1.2,1.3c0.2,0.9-0.3,1.7-1.1,2.1
	c-1.2,0.5-2.5,1-3.7,1.5c-4.8,1.9-9.5,3.8-14.3,5.7c-0.6,0.2-1.1,0.2-1.6,0c-3.7-1.5-7.3-2.9-11-4.4c-2.3-0.9-4.6-1.8-6.9-2.8
	c-0.7-0.3-1.2-0.7-1.3-1.5c0,0,0,0,0,0c0-0.2,0-0.4,0-0.5c0,0,0,0,0-0.1c0.1-0.7,0.6-1.1,1.2-1.4c1.4-0.6,2.9-1.2,4.3-1.7
	c3.8-1.5,7.5-3,11.3-4.5c1-0.4,2-0.9,3-1.1C20,3,20,3,20.1,3z"/>
<path class="st0" d="M0,19.8c0.1-0.4,0.2-0.8,0.6-1c0.6-0.5,1.3-0.7,2-0.4c1,0.4,2.1,0.8,3.1,1.2c4.7,1.9,9.4,3.8,14.1,5.7
	c0.1,0,0.2,0,0.3,0c5.7-2.3,11.5-4.6,17.2-6.9c1.2-0.5,2.4,0.2,2.6,1.4c0.1,0.8-0.3,1.6-1.1,1.9c-1,0.4-1.9,0.8-2.9,1.2
	c-5,2-10,4-15.1,6.1c-0.5,0.2-1.1,0.2-1.6,0c-3.7-1.5-7.4-3-11.2-4.5c-2.3-0.9-4.5-1.8-6.8-2.7c-0.6-0.2-1-0.7-1.2-1.4
	c0,0,0,0,0-0.1C0,20.1,0,19.9,0,19.8z"/>
<path class="st0" d="M0,27.6c0.1-0.3,0.2-0.7,0.4-0.9c0.6-0.6,1.4-0.8,2.2-0.5c2.4,1,4.8,1.9,7.2,2.9c3.3,1.3,6.6,2.7,10,4
	c0.1,0.1,0.3,0.1,0.4,0c5.7-2.3,11.4-4.6,17.1-6.9c1.2-0.5,2.4,0.2,2.6,1.4c0.1,0.8-0.3,1.6-1.1,1.9c-1,0.4-2,0.8-3.1,1.2
	c-5,2-10,4-15,6c-0.5,0.2-1,0.2-1.6,0c-5.3-2.1-10.6-4.3-16-6.4c-0.7-0.3-1.3-0.5-2-0.8c-0.6-0.3-1.1-0.7-1.2-1.4c0,0,0,0,0-0.1
	C0,28,0,27.8,0,27.6z"/>
</svg>
