<?xml version="1.0" encoding="utf-8"?>
<!-- Generator: Adobe Illustrator 21.0.1, SVG Export Plug-In . SVG Version: 6.00 Build 0)  -->
<svg version="1.1" id="Слой_1" xmlns="http://www.w3.org/2000/svg" xmlns:xlink="http://www.w3.org/1999/xlink" x="0px" y="0px"
	 viewBox="0 0 40 40" style="enable-background:new 0 0 40 40;" xml:space="preserve">
<style type="text/css">
	.st0{fill:#FFFFFF;}
</style>
<path class="st0" d="M0,27.7c0-7,0-13.9,0-20.9c0,0,0-0.1,0-0.1c0.1-0.7,0.3-1.4,0.7-2.1c1-1.6,2.5-2.4,4.4-2.4c9.9,0,19.8,0,29.8,0
	c0.1,0,0.2,0,0.2,0c2.2,0.1,4.1,1.5,4.7,3.6C39.9,6.2,40,6.5,40,6.8c0,7,0,13.9,0,20.9c0,0.1,0,0.1,0,0.2c-0.1,0.5-0.2,1-0.4,1.4
	c-0.9,2-2.5,3-4.7,3c-2.8,0-5.6,0-8.4,0c-0.1,0-0.2,0-0.3,0.2c-2,2.4-4,4.8-6,7.2c0,0.1-0.1,0.1-0.1,0.2c0-0.1-0.1-0.1-0.1-0.1
	c-2-2.4-4-4.8-6-7.2c-0.1-0.1-0.2-0.2-0.4-0.2c-2.8,0-5.6,0-8.4,0c-2.4,0-4.4-1.5-4.9-3.8C0.1,28.2,0.1,27.9,0,27.7z M20,36
	c0.1-0.1,0.1-0.1,0.2-0.2c1.5-2,3-3.9,4.5-5.9c0.1-0.1,0.2-0.2,0.4-0.2c3.3,0,6.6,0,10,0c1.5,0,2.6-1.1,2.6-2.6c0-6.6,0-13.3,0-19.9
	c0-1.5-1.1-2.6-2.6-2.6c-10,0-19.9,0-29.9,0c-1.5,0-2.6,1.1-2.6,2.6c0,6.6,0,13.3,0,19.9c0,0.2,0,0.4,0.1,0.6c0.3,1.2,1.3,2,2.5,2
	c3.2,0,6.5,0,9.7,0c0.1,0,0.2,0,0.3,0.2c0.9,1.2,1.9,2.3,2.8,3.5C18.7,34.3,19.3,35.1,20,36z"/>
<path class="st0" d="M32.5,19.7c0,0.8,0,1.7,0,2.5c-8.3,0-16.6,0-25,0c0-0.8,0-1.7,0-2.5C15.9,19.7,24.2,19.7,32.5,19.7z"/>
<path class="st0" d="M18.8,11c0,0.8,0,1.6,0,2.5c-3.7,0-7.5,0-11.2,0c0-0.8,0-1.6,0-2.5C11.3,11,15,11,18.8,11z"/>
</svg>
