<?xml version="1.0" encoding="utf-8"?>
<!-- Generator: Adobe Illustrator 21.0.1, SVG Export Plug-In . SVG Version: 6.00 Build 0)  -->
<svg version="1.1" id="Слой_1" xmlns="http://www.w3.org/2000/svg" xmlns:xlink="http://www.w3.org/1999/xlink" x="0px" y="0px"
	 viewBox="0 0 40 40" style="enable-background:new 0 0 40 40;" xml:space="preserve">
<style type="text/css">
	.st0{fill:#FFFFFF;}
</style>
<path class="st0" d="M0,19.9c0.6-1.4,1.7-1.9,3.2-1.9c2.4,0.1,4.8,0,7.3,0c0.7,0,1.3,0.1,2.1,0.2c0.2-0.4,0.5-0.8,0.7-1.3
	c1.3-2.5,2.6-4.9,3.9-7.4c0.2-0.4,0.3-0.8,0.2-1.2c-0.1-2-0.3-4-0.5-6.1c0-0.5,0.1-0.7,0.5-0.9c3.3-1.6,6.7-0.6,8.4,2.8
	c1.1,2.1,1.2,4.4,1,6.7c-0.1,0.9-0.2,1.9-0.3,2.9c0.3,0,0.6,0,0.8,0c2.3,0,4.6,0.1,7,0c2.7-0.1,5,1,5.7,3.9c0,0.5,0,1,0,1.6
	c-0.3,0.6-0.5,1.2-0.8,1.8c0,0.1-0.1,0.3,0,0.4c0.3,0.6,0.5,1.2,0.8,1.8c0,0.5,0,1,0,1.6c-0.4,0.8-0.9,1.6-1.3,2.5
	c-0.1,0.2-0.1,0.4-0.1,0.6c0.4,2.1-0.3,3.8-2,5c-0.2,0.1-0.4,0.4-0.4,0.7c0.2,2.7-2,5.2-5.1,5.1c-4.5-0.1-8.9,0-13.4,0
	c-1.5,0-2.9,0.1-4.3-0.7c-0.7,1.2-1.8,1.4-3,1.4c-2.4,0-4.8-0.1-7.3,0c-1.5,0-2.6-0.5-3.2-1.9C0,31.6,0,25.8,0,19.9z M19.5,3.3
	c0.2,1.7,0.3,3.3,0.5,5c0.1,0.8,0,1.6-0.4,2.3c-1.8,3.4-3.6,6.8-5.4,10.2c-0.2,0.4-0.3,0.9-0.3,1.4c0,3.9,0,7.7,0,11.6
	c0,1.6,0.8,2.5,2.4,2.5c5.1,0,10.2,0,15.3,0c1.8,0,2.8-1.7,2-3.3c-0.2-0.5-0.5-0.9-0.7-1.4c1.2-0.3,2.6-0.1,3.3-1.5
	c0.7-1.4-0.3-2.3-0.9-3.4c1.2-0.6,2.4-1.1,2.4-2.6c0-1.5-1.4-1.9-2.3-2.8c0.2-0.1,0.3-0.3,0.5-0.4c0.3-0.2,0.5-0.4,0.8-0.5
	c1-0.7,1.3-1.6,1-2.6c-0.3-0.9-1.2-1.5-2.3-1.5c-3.5,0-7.1,0-10.6,0c-0.3,0-0.5,0-0.9,0c0.1-0.8,0.2-1.4,0.2-2.1
	c0.2-1.9,0.5-3.8,0.5-5.7c0-1.9-0.5-3.6-2.1-4.8C21.4,3.1,20.5,2.9,19.5,3.3z M11.2,20.6c-2.9,0-5.8,0-8.7,0c0,5.4,0,10.8,0,16.2
	c2.9,0,5.8,0,8.7,0C11.2,31.4,11.2,26,11.2,20.6z"/>
<path class="st0" d="M40,23.2c-0.3-0.6-0.5-1.2-0.8-1.8c0-0.1,0-0.3,0-0.4c0.2-0.6,0.5-1.2,0.8-1.8C40,20.5,40,21.9,40,23.2z"/>
</svg>
